<?xml version="1.0" encoding="UTF-8"?>
<svg fill="rgb(31, 55, 10)" width="1200pt" height="1200pt" version="1.1" viewBox="0 0 1200 1200" xmlns="http://www.w3.org/2000/svg">
 <path d="m853.2 562.8c-79.199 0-146.4 52.801-169.2 123.6l-193.2-40.801c1.1992-7.1992 2.3984-14.398 2.3984-21.602 0-63.602-51.602-115.2-115.2-115.2-3.6016 0-8.3984 0-12 1.1992l-39.602-208.8c55.199-10.801 96-60 96-117.6 0-66-54-120-120-120s-120 54-120 120 54 120 120 120c4.8008 0 9.6016 0 15.602-1.1992l39.602 208.8c-52.801 9.6016-93.602 56.398-93.602 112.8 0 49.199 31.199 92.398 75.602 108l-68.398 236.4c-4.8008-1.1992-9.6016-1.1992-15.602-1.1992-46.801 0-85.199 38.398-85.199 85.199 0 46.801 38.398 85.199 85.199 85.199 46.801 0 85.199-38.398 85.199-85.199 0-38.398-25.199-70.801-60-81.602l67.199-235.2c9.6016 2.3984 19.199 3.6016 30 3.6016 52.801 0 97.199-34.801 110.4-84l193.2 40.797c-3.6016 14.398-4.8008 28.801-4.8008 43.199 0 97.199 79.199 176.4 176.4 176.4s176.4-79.199 176.4-176.4c0.003906-97.199-79.199-176.4-176.4-176.4z"/>
</svg>
