<svg version="1.1" xmlns="http://www.w3.org/2000/svg" viewBox="359.98 203.98 480.02 792.02">  <path d="m837.6 376.8-69.602-92.797v-68.004c0-6.625-5.375-12-12-12h-312c-6.625 0-12 5.375-12 12v68.004l-69.602 92.797c-1.5586 2.0742-2.3984 4.6055-2.3984 7.1992v600c0 6.625 5.375 12 12 12h456c6.625 0 12-5.375 12-12v-600c0-2.5938-0.83984-5.125-2.3984-7.1992zm-381.6-148.8h288v48h-288zm72 576v168h-12v-168h-132v-240h132v-168h-132c0-9.3945-0.52734-7.2969 3-12h123l-62.93-80.09 2.9297-3.9102h300l66 87.996v8.0039h-288v168h288v240z" fill="#1f360a"></path> </svg>
