<?xml version="1.0" encoding="UTF-8"?>
<svg fill="#333" width="1200pt" height="1200pt" version="1.1" viewBox="0 0 1200 1200" xmlns="http://www.w3.org/2000/svg">
 <g>
  <path d="m199.24 131.25h43.52c13.051 0 25.57 5.1836 34.801 14.414 9.2305 9.2305 14.418 21.75 14.418 34.805v833.7c0 13.055-5.1875 25.574-14.418 34.805-9.2305 9.2305-21.75 14.414-34.801 14.414h-43.52c-13.059 0-25.582-5.1875-34.816-14.422s-14.422-21.758-14.422-34.816v-833.66c0-13.059 5.1875-25.582 14.422-34.816s21.758-14.422 34.816-14.422z"/>
  <path d="m957.24 136.59h43.52c27.184 0 49.219 27.184 49.219 49.219v833.72c0 27.184-22.035 49.219-49.219 49.219h-43.52c-27.184 0-49.219-27.184-49.219-49.219v-833.72c0-27.184 22.035-49.219 49.219-49.219z"/>
  <path d="m703.12 337.5h223.67v37.5h-223.67z"/>
  <path d="m476.59 337.5h114.05v37.5h-114.05z"/>
  <path d="m273.23 337.5h92.398v37.5h-92.398z"/>
  <path d="m824.34 578.59h102.45v37.5h-102.45z"/>
  <path d="m657.8 578.59h64.07v37.5h-64.07z"/>
  <path d="m487.52 578.59h62.477v37.5h-62.477z"/>
  <path d="m273.23 578.59h103.33v37.5h-103.33z"/>
  <path d="m843.77 825h83.023v37.5h-83.023z"/>
  <path d="m655.54 825h81.957v37.5h-81.957z"/>
  <path d="m273.23 825h251.77v37.5h-251.77z"/>
  <path d="m421.88 271.88c-22.379 0-43.84 8.8906-59.664 24.711-15.82 15.824-24.711 37.285-24.711 59.664s8.8906 43.84 24.711 59.664c15.824 15.82 37.285 24.711 59.664 24.711s43.84-8.8906 59.664-24.711c15.82-15.824 24.711-37.285 24.711-59.664s-8.8906-43.84-24.711-59.664c-15.824-15.82-37.285-24.711-59.664-24.711z"/>
  <path d="m646.88 271.88c-22.379 0-43.84 8.8906-59.664 24.711-15.82 15.824-24.711 37.285-24.711 59.664s8.8906 43.84 24.711 59.664c15.824 15.82 37.285 24.711 59.664 24.711s43.84-8.8906 59.664-24.711c15.82-15.824 24.711-37.285 24.711-59.664s-8.8906-43.84-24.711-59.664c-15.824-15.82-37.285-24.711-59.664-24.711z"/>
  <path d="m431.25 512.95c-22.379 0-43.84 8.8867-59.664 24.711-15.82 15.824-24.711 37.285-24.711 59.664 0 22.375 8.8906 43.836 24.711 59.66 15.824 15.824 37.285 24.715 59.664 24.715s43.84-8.8906 59.664-24.715c15.82-15.824 24.711-37.285 24.711-59.66-0.023438-22.371-8.9219-43.816-24.742-59.637-15.816-15.816-37.262-24.715-59.633-24.738z"/>
  <path d="m600 512.95c-22.379 0-43.84 8.8867-59.664 24.711-15.82 15.824-24.711 37.285-24.711 59.664 0 22.375 8.8906 43.836 24.711 59.66 15.824 15.824 37.285 24.715 59.664 24.715s43.84-8.8906 59.664-24.715c15.82-15.824 24.711-37.285 24.711-59.66-0.023438-22.371-8.9219-43.816-24.742-59.637-15.816-15.816-37.262-24.715-59.633-24.738z"/>
  <path d="m768.75 512.95c-22.379 0-43.84 8.8867-59.664 24.711-15.82 15.824-24.711 37.285-24.711 59.664 0 22.375 8.8906 43.836 24.711 59.66 15.824 15.824 37.285 24.715 59.664 24.715s43.84-8.8906 59.664-24.715c15.82-15.824 24.711-37.285 24.711-59.66-0.023438-22.371-8.9219-43.816-24.742-59.637-15.816-15.816-37.262-24.715-59.633-24.738z"/>
  <path d="m600 759.38c-22.379 0-43.84 8.8906-59.664 24.711-15.82 15.824-24.711 37.285-24.711 59.664s8.8906 43.84 24.711 59.664c15.824 15.82 37.285 24.711 59.664 24.711s43.84-8.8906 59.664-24.711c15.82-15.824 24.711-37.285 24.711-59.664s-8.8906-43.84-24.711-59.664c-15.824-15.82-37.285-24.711-59.664-24.711z"/>
  <path d="m787.5 759.38c-22.379 0-43.84 8.8906-59.664 24.711-15.82 15.824-24.711 37.285-24.711 59.664s8.8906 43.84 24.711 59.664c15.824 15.82 37.285 24.711 59.664 24.711s43.84-8.8906 59.664-24.711c15.82-15.824 24.711-37.285 24.711-59.664s-8.8906-43.84-24.711-59.664c-15.824-15.82-37.285-24.711-59.664-24.711z"/>
 </g>
</svg>
