<svg version="1.1" xmlns="http://www.w3.org/2000/svg" viewBox="-0.03 50.2 1200.05 1099.57">  <path d="m780.94 847.7 177.27-84.91v257.86l-177.27-84.938zm-261.46-123.24h226.89v334.46h-253.18c-4.0547 0-7.9922 1.4414-11.113 4.0312l-103.54 86.809 9.9375-71.184c0.69531-4.9453-0.79297-9.9609-4.0781-13.727-3.2891-3.7695-8.0391-5.9297-13.031-5.9297h-68.855v-176.9c94.965-14.523 175.03-74.812 216.96-157.56zm-38.375 163.58c0-9.5508-7.7266-17.281-17.281-17.281h-23.664c-9.5508 0-17.281 7.7266-17.281 17.281 0 9.5508 7.7266 17.281 17.281 17.281h23.664c9.5273 0 17.281-7.7539 17.281-17.281zm131.54 0c0 9.5508 7.7266 17.281 17.281 17.281h23.664c9.5508 0 17.281-7.7266 17.281-17.281 0-9.5508-7.7266-17.281-17.281-17.281h-23.664c-9.5312-0.023437-17.281 7.7305-17.281 17.281zm-94.895 0c0 9.5508 7.7266 17.281 17.281 17.281h23.664c9.5508 0 17.281-7.7266 17.281-17.281 0-9.5508-7.7266-17.281-17.281-17.281h-23.664c-9.5312-0.023437-17.281 7.7305-17.281 17.281zm354.5-246.57-72.191-125.04-43.465 25.105 76.32 103.2zm126.41-368.74c-8.7617-15.168-24.742-29.688-46.586-33.406l52.246 90.48c7.6836-20.785 3.1016-41.906-5.6602-57.074zm-282.72 252.34 6.4336-3.7188 60.383-34.871-77.16-133.66-66.84 38.594c-36.863 21.289-49.512 68.566-28.246 105.43 21.285 36.836 68.562 49.484 105.43 28.219zm-457.8 325.73c-26.566 0-52.777-4.0312-77.93-11.977l-6.5039-2.0625-80.207 38.328 18.098-69.574-9.1914-6.9609c-65.066-49.324-102.41-124.37-102.41-205.9 0-142.34 115.8-258.14 258.14-258.14s258.17 115.8 258.17 258.14-115.8 258.14-258.17 258.14zm-65.762-258.67c0-9.5508-7.7266-17.281-17.281-17.281h-23.66c-9.5508 0-17.281 7.7266-17.281 17.281 0 9.5508 7.7266 17.281 17.281 17.281h23.664c9.5273-0.003906 17.277-7.7539 17.277-17.281zm94.898 0c0-9.5508-7.7266-17.281-17.281-17.281h-23.664c-9.5508 0-17.281 7.7266-17.281 17.281 0 9.5508 7.7266 17.281 17.281 17.281h23.664c9.5273-0.003906 17.281-7.7539 17.281-17.281zm94.895 0c0-9.5508-7.7266-17.281-17.281-17.281h-23.664c-9.5508 0-17.281 7.7266-17.281 17.281 0 9.5508 7.7266 17.281 17.281 17.281h23.664c9.5312-0.003906 17.281-7.7539 17.281-17.281zm606.7-219.91-81.266-140.76c0-0.023437-0.023438-0.023437-0.023438-0.046875l-42.574-73.727-132.36 172.87 82.922 143.62 215.9-28.176-42.551-73.703c-0.027344-0.023437-0.027344-0.050781-0.050781-0.074218zm-3.8164-211.66c1.4883 0.40625 3 0.60156 4.4883 0.60156 7.6328 0 14.617-5.0898 16.68-12.816l20.473-76.367c2.4727-9.2148-3-18.695-12.215-21.168-9.2148-2.4727-18.695 3-21.168 12.215l-20.473 76.367c-2.4727 9.2188 3 18.699 12.215 21.168zm202.13 185.88-76.367-20.473c-9.2148-2.4727-18.695 3-21.168 12.215-2.4727 9.2148 3 18.695 12.215 21.168l76.367 20.473c1.4883 0.40625 3 0.60156 4.4883 0.60156 7.6328 0 14.617-5.0898 16.68-12.816 2.4727-9.2188-3-18.699-12.215-21.168zm-89.422-112.39 68.473-39.527c8.2578-4.7773 11.09-15.336 6.3359-23.617-4.7773-8.2578-15.336-11.09-23.617-6.3359l-68.473 39.531c-8.2578 4.7773-11.09 15.336-6.3359 23.617 3.1914 5.543 9 8.6406 14.977 8.6406 2.9492-0.003907 5.9023-0.74609 8.6406-2.3086z" fill="#1f360a"></path> </svg>
