<?xml version="1.0" encoding="UTF-8"?>
<svg width="1200pt" height="1200pt" version="1.1" viewBox="0 0 1200 1200" xmlns="http://www.w3.org/2000/svg">
 <path fill="#1F370A" d="m1147.5 745.24-91.461-176.43c44.117-40.793 56.961-119.85 53.363-185.84-1.625-29.578-11.316-127.98-68.176-151.78-55.148-23.07-109.11 12.297-139.79 39.395l-35.148-67.801c-2.9648-5.6953-8.0039-10.031-14.074-12.117-6.0742-2.0859-12.715-1.7578-18.555 0.91406l-434.89 199.77c-5.832 2.6797-10.406 7.4961-12.785 13.453-2.375 5.957-2.3711 12.602 0.015626 18.555l49.312 123.12-191.9-50.629c1.1562-12.285-1.4883-24.625-7.5742-35.355-6.0859-10.734-15.324-19.336-26.461-24.645l-28.977-13.684c-14.449-6.832-31.023-7.6445-46.07-2.2578-15.047 5.3867-27.34 16.531-34.168 30.98l-44.727 94.641c-6.8281 14.449-7.6367 31.016-2.2461 46.059 5.3906 15.043 16.531 27.328 30.98 34.156l28.992 13.695c10.535 5.0117 22.305 6.8359 33.863 5.25 11.559-1.5898 22.402-6.5195 31.195-14.188l369.18 195.82 67.574 168.71v-0.003907c2.5625 6.3867 7.6406 11.434 14.047 13.957 6.4023 2.5234 13.559 2.2969 19.789-0.62891l487.13-228.98c6.1523-2.8945 10.863-8.168 13.043-14.605 2.1836-6.4414 1.6484-13.492-1.4805-19.527zm-125.59-467.93c15.918 6.6641 34.312 49.035 37.562 108.4h-0.003906c5 46.949-4.8633 94.289-28.199 135.34l-105.95-204.38c19.457-19.246 61.27-54.113 96.594-39.355zm-879.54 317.3c-2.5586 0.95312-5.3945 0.81641-7.8477-0.37891l-28.992-13.695c-5.1172-2.4219-7.3008-8.5312-4.8828-13.648l44.727-94.641c1.1523-2.4648 3.2461-4.3633 5.8086-5.2734 2.5625-0.89844 5.375-0.75781 7.8359 0.39062l28.98 13.684c5.1211 2.4258 7.3086 8.5352 4.8984 13.66l-44.73 94.641c-1.1484 2.457-3.2383 4.3516-5.7969 5.2617zm64.367-5.582 21.168-45.57 230.56 60.828 60.133 150.13zm444.79 362.79-210.27-524.95 391.6-179.89 39.984 77.129 0.03125 0.058594 129.31 249.43 0.007812 0.023437 0.015625 0.019532 88.938 171.55z"/>
</svg>
