<?xml version="1.0" encoding="UTF-8"?>
<svg width="1200pt" height="1200pt" version="1.1" viewBox="0 0 1200 1200" xmlns="http://www.w3.org/2000/svg">
 <g>
  <path fill="#1F370A" d="m961.2 760.8c0-13.199-10.801-24-24-24h-650.4v-666c0-13.199-10.801-24-24-24s-24 10.801-24 24v690c0 13.199 10.801 24 24 24h673.2c14.398 0 25.199-10.801 25.199-24z"/>
  <path fill="#1F370A" d="m553.2 502.8c0 37.199 30 68.398 68.398 68.398 38.398 0 68.398-30 68.398-68.398 0-38.398-30-68.398-68.398-68.398-38.398-0.003906-68.398 29.996-68.398 68.398zm87.602 0c0 10.801-9.6016 20.398-20.398 20.398-10.801 0-20.398-9.6016-20.398-20.398 0-10.801 9.6016-20.398 20.398-20.398 11.996-0.003906 20.398 8.3984 20.398 20.398z"/>
  <path fill="#1F370A" d="m777.6 290.4c0-37.199-30-68.398-68.398-68.398s-68.398 30-68.398 68.398c0 38.398 30 68.398 68.398 68.398 38.398 0.003906 68.398-31.195 68.398-68.398zm-88.801 0c0-10.801 9.6016-20.398 20.398-20.398 10.801 0 20.398 9.6016 20.398 20.398 0 10.801-9.6016 20.398-20.398 20.398-10.801 0.003906-20.398-9.5977-20.398-20.398z"/>
  <path fill="#1F370A" d="m892.8 140.4c-37.199 0-68.398 30-68.398 68.398s30 68.398 68.398 68.398c38.398 0 68.398-30 68.398-68.398s-31.199-68.398-68.398-68.398zm0 87.602c-10.801 0-20.398-9.6016-20.398-20.398 0-10.801 9.6016-20.398 20.398-20.398 10.801 0 20.398 9.6016 20.398 20.398 0 12-9.5977 20.398-20.398 20.398z"/>
  <path fill="#1F370A" d="m483.6 624c0-37.199-30-68.398-68.398-68.398s-68.398 30-68.398 68.398 30 68.398 68.398 68.398 68.398-31.199 68.398-68.398zm-88.801 0c0-10.801 9.6016-20.398 20.398-20.398 10.801 0 20.398 9.6016 20.398 20.398 0 10.801-9.6016 20.398-20.398 20.398-10.801-1.1992-20.398-9.5977-20.398-20.398z"/>
  <path fill="#1F370A" d="m765.6 907.2 1.1992-12c1.1992-16.801-4.8008-34.801-16.801-46.801-12-13.199-31.199-20.398-49.199-20.398h-1.1992c-42 2.3984-105.6 6-139.2 6h-15.602-3.6016c-37.199 0-130.8 49.199-165.6 68.398l-99.598 6c-13.199 1.1992-22.801 12-22.801 24l3.6016 162c0 10.801 7.1992 19.199 16.801 22.801 2.3984 1.1992 26.398 7.1992 124.8 19.199 106.8 13.199 230.4 16.801 231.6 16.801h1.1992l112.8-1.1992c16.801 0 32.398-6 44.398-15.602l130.8-106.8c15.602-12 24-30 25.199-49.199 1.1992-19.199-7.1992-38.398-20.398-51.602-22.801-20.398-58.801-22.801-84-6l-94.801 68.398c-4.8008 3.6016-10.801 6-16.801 6l-68.402-20.395 31.199-1.1992c39.602 0 72-30 74.402-68.402zm-220.8 25.199c-10.801 0-20.398 8.3984-22.801 19.199-2.3984 10.801 3.6016 22.801 14.398 26.398l99.602 42.004c1.1992 0 1.1992 0 2.3984 1.1992l80.398 24c2.3984 0 3.6016 1.1992 6 1.1992 18 1.1992 36-3.6016 50.398-14.398l94.801-68.398c7.1992-4.8008 16.801-4.8008 22.801 1.1992 4.8008 4.8008 6 10.801 6 14.398 0 3.6016-1.1992 9.6016-7.1992 13.199l-130.8 106.8c-3.6016 3.6016-9.6016 4.8008-14.398 4.8008l-112.8 1.1992c-8.3984 0-124.8-4.8008-226.8-16.801-52.801-7.1992-84-12-99.602-14.398l-2.3984-120 80.398-4.8008c3.6016 0 7.1992-1.1992 9.6016-2.3984 57.602-31.199 129.6-64.801 147.6-64.801h19.199c34.801 0 99.602-3.6016 141.6-6h2.3984c4.8008 0 8.3984 2.3984 10.801 4.8008 1.1992 1.1992 4.8008 6 3.6016 10.801l-1.1992 12c-1.1992 13.199-12 24-26.398 24z"/>
 </g>
</svg>
