<?xml version="1.0" encoding="UTF-8"?>
<svg width="1200pt" height="1200pt" version="1.1" viewBox="0 0 1200 1200" xmlns="http://www.w3.org/2000/svg">
 <g>
  <path d="m638.45 925.66c-9.1172 0-18.375-0.34375-27.516-1.0273-11.57-0.86328-20.762-10.062-21.625-21.629-0.68359-9.1602-1.0273-18.414-1.0273-27.5 0-33.09 4.4883-65.594 13.34-96.602 15.512-54.344 43.375-101.89 82.812-141.34 38.551-38.551 84.922-66.07 137.83-81.793 32.07-9.5312 65.75-14.359 100.1-14.359 9.1133 0 18.371 0.34766 27.512 1.0273 11.57 0.86328 20.762 10.062 21.629 21.629 0.68359 9.1602 1.0273 18.418 1.0273 27.512 0 33.684-4.6484 66.742-13.816 98.246-2.3672 8.1406-5.0742 16.273-8.043 24.188-4.5508 12.117-18.059 18.254-30.18 13.707-12.117-4.5508-18.254-18.062-13.707-30.18 2.5547-6.8008 4.8828-13.809 6.9219-20.809 7.9297-27.25 11.949-55.902 11.949-85.152 0-1.0898-0.007812-2.1836-0.015625-3.2812-1.0977-0.011719-2.1875-0.015625-3.2773-0.015625-29.832 0-59.016 4.1797-86.75 12.418-45.348 13.477-85.059 37.027-118.04 70.004-33.738 33.738-57.586 74.465-70.883 121.05-7.6602 26.828-11.539 55-11.539 83.738 0 1.0859 0.003906 2.1797 0.015625 3.2734 29.422 0.30469 58.07-3.4336 85.449-11.082 47.23-13.199 88.484-37.195 122.61-71.328 2.4414-2.4414 4.8477-4.9375 7.1641-7.4297 8.8047-9.4961 23.633-10.047 33.125-1.2383 9.4883 8.8047 10.043 23.633 1.2383 33.121-2.7109 2.9258-5.5312 5.8516-8.3828 8.7031-39.332 39.332-88.828 68.141-143.14 83.32-30.465 8.5078-62.359 12.824-94.789 12.824z"/>
  <path d="m611.72 1103.9c-12.945 0-23.438-10.492-23.438-23.438v-539.06c0-12.945 10.492-23.438 23.438-23.438 12.941 0 23.438 10.492 23.438 23.438v539.06c0 12.945-10.496 23.438-23.438 23.438z"/>
  <path d="m611.72 916.41c-6 0-11.996-2.2891-16.574-6.8633-9.1523-9.1523-9.1523-23.992 0-33.148l164.06-164.06c9.1562-9.1523 23.992-9.1523 33.148 0 9.1523 9.1523 9.1523 23.992 0 33.148l-164.06 164.06c-4.5781 4.5742-10.574 6.8633-16.574 6.8633z"/>
  <path d="m584.99 1019.4c-32.43 0-64.32-4.3164-94.785-12.828-54.309-15.18-103.81-43.988-143.14-83.324-2.8438-2.8477-5.6641-5.7734-8.3711-8.6875-8.8047-9.4883-8.2539-24.32 1.2344-33.125 9.4844-8.8086 24.312-8.2539 33.121 1.2344 2.3164 2.4922 4.7266 4.9961 7.1641 7.4336 34.129 34.133 75.383 58.129 122.61 71.328 27.379 7.6523 56.07 11.387 85.449 11.082 0.011719-1.0938 0.015625-2.1836 0.015625-3.2734 0-28.738-3.8828-56.91-11.539-83.738-13.297-46.586-37.148-87.312-70.883-121.05-32.98-32.977-72.691-56.527-118.04-70.004-28.746-8.543-58.98-12.742-90.027-12.402-0.011719 1.0938-0.015625 2.1914-0.015625 3.2812 0 29.25 4.0195 57.898 11.949 85.148 2.0391 7.0117 4.3672 14.012 6.9219 20.812 4.5508 12.121-1.5859 25.633-13.703 30.18-12.113 4.5469-25.633-1.5859-30.18-13.703-2.9688-7.9102-5.6758-16.051-8.0469-24.195-9.168-31.504-13.816-64.555-13.816-98.242 0-9.125 0.34766-18.383 1.0312-27.523 0.86719-11.562 10.062-20.758 21.629-21.621 9.1445-0.68359 18.395-1.0273 27.5-1.0273 34.359 0 68.043 4.8359 100.11 14.363 52.902 15.719 99.273 43.238 137.83 81.789 39.438 39.438 67.301 86.988 82.812 141.34 8.8516 31.008 13.34 63.512 13.34 96.602 0 9.0898-0.34375 18.344-1.0273 27.5-0.86328 11.57-10.059 20.762-21.629 21.629-9.1484 0.68359-18.406 1.0273-27.52 1.0273z"/>
  <path d="m611.72 1010.2c-6 0-11.996-2.2891-16.574-6.8633l-164.06-164.06c-9.1523-9.1523-9.1523-23.992 0-33.148 9.1523-9.1523 23.992-9.1523 33.148 0l164.06 164.06c9.1523 9.1523 9.1523 23.992 0 33.148-4.5781 4.5742-10.574 6.8633-16.574 6.8633z"/>
  <path d="m201.56 564.84c-45.23 0-82.031-36.801-82.031-82.031s36.801-82.031 82.031-82.031 82.031 36.801 82.031 82.031-36.801 82.031-82.031 82.031zm0-117.19c-19.387 0-35.156 15.77-35.156 35.156s15.77 35.156 35.156 35.156 35.156-15.77 35.156-35.156-15.77-35.156-35.156-35.156z"/>
  <path d="m998.44 260.16c-45.23 0-82.031-36.801-82.031-82.031s36.801-82.031 82.031-82.031 82.031 36.801 82.031 82.031-36.801 82.031-82.031 82.031zm0-117.19c-19.387 0-35.156 15.77-35.156 35.156s15.77 35.156 35.156 35.156 35.156-15.77 35.156-35.156-15.77-35.156-35.156-35.156z"/>
  <path d="m775.78 1103.9h-424.22c-12.945 0-23.438-10.492-23.438-23.438s10.492-23.438 23.438-23.438h424.22c12.941 0 23.438 10.492 23.438 23.438s-10.496 23.438-23.438 23.438z"/>
  <path d="m846.09 1103.9h-1.4648c-12.941 0-23.438-10.492-23.438-23.438s10.496-23.438 23.438-23.438h1.4648c12.941 0 23.438 10.492 23.438 23.438s-10.496 23.438-23.438 23.438z"/>
  <path d="m610.84 503.91h-1.4648c-12.945 0-23.438-10.492-23.438-23.438s10.492-23.438 23.438-23.438h1.4648c12.941 0 23.438 10.492 23.438 23.438s-10.496 23.438-23.438 23.438z"/>
  <path d="m610.84 433.59h-1.4648c-12.945 0-23.438-10.492-23.438-23.438s10.492-23.438 23.438-23.438h1.4648c12.941 0 23.438 10.492 23.438 23.438s-10.496 23.438-23.438 23.438z"/>
  <path d="m610.84 363.28h-1.4648c-12.945 0-23.438-10.492-23.438-23.438s10.492-23.438 23.438-23.438h1.4648c12.941 0 23.438 10.492 23.438 23.438s-10.496 23.438-23.438 23.438z"/>
  <path d="m606.37 679c-6.4336 0-12.582-2.6445-17.012-7.3125-27.871-29.402-55.801-56.051-82.023-80.824l-0.6875-0.65234c-9.4062-8.8906-9.8281-23.727-0.9375-33.133 8.8906-9.4062 23.723-9.8281 33.133-0.9375l0.73438 0.69141c21.371 20.191 43.906 41.656 66.793 64.977 22.918-23.352 45.473-44.824 66.883-65.043l8.957-8.4531c42.367-39.961 78.957-74.469 106.67-110.43 33.895-43.98 49.008-83.359 49.008-127.68 0-42.184-21.98-80.188-57.367-99.188-11.406-6.125-15.684-20.332-9.5625-31.738 6.125-11.406 20.336-15.684 31.738-9.5625 50.621 27.18 82.066 81.012 82.066 140.49 0 54.617-18.672 104.28-58.754 156.3-29.98 38.902-69.645 76.316-111.64 115.92l-8.9375 8.4336c-26.215 24.758-54.145 51.391-82.059 80.84-4.4219 4.668-10.574 7.3125-17.008 7.3125zm-167.42-164.27c-6.2578 0-12.5-2.4922-17.113-7.418-13.578-14.504-25.027-27.852-35.008-40.812-40.055-52.008-58.707-101.68-58.707-156.3 0-87.039 67.668-157.85 150.84-157.85 62.129 0 98.703 28.684 127.38 74.707 15.363-24.648 34.926-47.184 61.836-60.613 11.582-5.7773 25.656-1.0742 31.438 10.504 5.7812 11.582 1.0742 25.656-10.508 31.438-22.469 11.211-40.875 34.613-61.559 78.246-3.875 8.1836-12.125 13.398-21.18 13.398-9.0547 0-17.301-5.2188-21.18-13.398-31.359-66.164-57.172-87.406-106.23-87.406-57.328 0-103.96 49.785-103.96 110.98 0 44.34 15.102 83.723 48.973 127.71 9.0508 11.754 19.547 23.98 32.086 37.371 8.8477 9.4492 8.3594 24.277-1.0898 33.125-4.5195 4.2344-10.273 6.3281-16.016 6.3281z"/>
 </g>
</svg>
