<?xml version="1.0" encoding="UTF-8"?>
<svg width="1200pt" height="1200pt" version="1.1" viewBox="0 0 1200 1200" xmlns="http://www.w3.org/2000/svg">
 <g fill="#1f360a">
  <path d="m1068 186c0 29.832-24.168 54-54 54h-198v198c0 29.832-24.168 54-54 54h-234v234c0 29.832-24.168 54-54 54h-234v234c0 29.832-24.168 54-54 54s-54-24.168-54-54v-252c0-49.621 40.379-90 90-90h198v-198c0-49.621 40.379-90 90-90h198v-162c0-49.621 40.379-90 90-90h216c29.832 0 54 24.168 54 54z"/>
  <path d="m924 672v144c0 14.555-8.7461 27.684-22.223 33.254-13.523 5.5938-28.969 2.4609-39.238-7.8008l-33.816-33.816-100.55 100.55c-21.098 21.098-55.262 21.098-76.355 0-21.098-21.07-21.098-55.285 0-76.355l100.55-100.55-33.816-33.816c-10.297-10.297-13.391-25.766-7.8008-39.238 5.543-13.453 18.695-22.227 33.25-22.227h144c19.895 0 36 16.117 36 36z"/>
 </g>
</svg>
