<svg version="1.1" xmlns="http://www.w3.org/2000/svg" viewBox="292.33 242.92 615.3 714.2">  <g fill="#1f360a">   <path d="m835.25 560.43h-97.285c20.352-25.066 33.898-55.812 38.148-89.484 52.598-10.633 92.316-57.191 92.316-112.86 0-63.504-51.672-115.16-115.16-115.16-35.09 0-66.504 15.816-87.637 40.645-20.316-8.1016-42.434-12.672-65.641-12.672s-45.312 4.5703-65.641 12.672c-21.133-24.828-52.547-40.645-87.637-40.645-63.492 0-115.16 51.66-115.16 115.16 0 55.68 39.73 102.24 92.316 112.86 4.2461 33.672 17.785 64.414 38.16 89.484h-97.297c-39.973 0-72.383 32.41-72.383 72.395 0 39.973 32.41 72.371 72.383 72.371h78.973c70.344 0 130.66 42.887 156.28 103.92 25.633-61.031 85.934-103.92 156.28-103.92h78.973c39.973 0 72.383-32.398 72.383-72.371 0.039062-39.996-32.375-72.395-72.359-72.395zm-81.98-264.87c34.465 0 62.508 28.043 62.508 62.508 0 26.93-17.207 49.727-41.137 58.5-7.6914-42.277-30.215-79.355-62.148-105.52 10.98-9.5156 25.141-15.492 40.777-15.492zm-60.207 226.74c0 40.727-41.664 73.754-93.059 73.754s-93.059-33.012-93.059-73.754c0-40.738 41.664-73.754 93.059-73.754s93.059 33.023 93.059 73.754zm-308.83-164.23c0-34.477 28.043-62.508 62.508-62.508 15.648 0 29.797 5.9766 40.766 15.504-31.934 26.16-54.457 63.238-62.148 105.52-23.926-8.7812-41.125-31.582-41.125-58.512z"></path>   <path d="m525.73 860.75c0 53.207-43.129 96.34-96.336 96.34-53.203 0-96.336-43.133-96.336-96.34 0-53.203 43.133-96.336 96.336-96.336 53.207 0 96.336 43.133 96.336 96.336"></path>   <path d="m866.94 860.75c0 53.207-43.133 96.34-96.336 96.34-53.207 0-96.336-43.133-96.336-96.34 0-53.203 43.129-96.336 96.336-96.336 53.203 0 96.336 43.133 96.336 96.336"></path>   <path d="m647.64 494.62c0 18.172-21.328 32.902-47.641 32.902s-47.641-14.73-47.641-32.902c0-18.172 21.328-32.906 47.641-32.906s47.641 14.734 47.641 32.906"></path>  </g> </svg>
